
Formula1.2011.Round02.Malaysia.FP2.SpeedHD.mkv

General Information
Format : Matroska
File size : 2.80 GiB
Duration : 1h 14mn
Overall bit rate : 5 384 Kbps
Encoded date : UTC 2011-04-08 15:21:19
Writing application : mkvmerge v4.6.0 (\'Still Crazy After All These Years\') built on Mar 10 2011 02:50:32
Writing library : libebml v1.2.0 + libmatroska v1.1.0
ID : 1
Format : AVC
Format/Info : Advanced Video Codec
Format profile : High@L4.2
Format settings, CABAC : Yes
Format settings, ReFrames : 3 frames
Muxing mode : Container profile=Unknown@4.2
Codec ID : V_MPEG4/ISO/AVC
Duration : 1h 14mn
Bit rate : 4 893 Kbps
Nominal bit rate : 4 999 Kbps
Width : 1 280 pixels
Height : 720 pixels
Display aspect ratio : 16:9
Frame rate : 59.940 fps
Resolution : 8 bitsColorimetry : 4:2:0
Scan type : Progressive
Bits/(Pixel*Frame) : 0.089
Stream size : 2.54 GiB (91%)
Writing library : x264 core 114 r1913 5fd3dce
ID : 2
Format : AC-3
Format/Info : Audio Coding 3
Codec ID : A_AC3
Duration : 1h 14mn
Bit rate mode : Constant
Bit rate : 384 Kbps
Channel(s) : 6 channels
Channel positions : Front: L C R, Surround: L R, LFE
Sampling rate : 48.0 KHz
Stream size : 204 MiB (7%)


[/center]